<?xml version="1.0" encoding="UTF-8" standalone="no"?>
<svg
   version="1.0"
   width="142.37834pt"
   height="142.52054pt"
   viewBox="0 0 142.37834 142.52054"
   preserveAspectRatio="xMidYMid"
   id="svg3"
   xmlns:xlink="http://www.w3.org/1999/xlink"
   xmlns="http://www.w3.org/2000/svg"
   xmlns:svg="http://www.w3.org/2000/svg">
  <defs
     id="defs3">
    <color-profile
       name="Agfa-:-Swop-Standard"
       xlink:href="../../../../../../../../WINDOWS/system32/spool/drivers/color/RSWOP.icm"
       id="color-profile2" />
  </defs>
  <g
     transform="matrix(0.1,0,0,-0.1,-17.5,159.63923)"
     fill="#000000"
     stroke="none"
     id="g3">
    <path
       d="M 760,1594 C 532,1551 340,1400 240,1185 188,1075 175,1013 175,885 c 1,-132 18,-206 77,-325 34,-68 61,-103 133,-176 77,-78 104,-98 185,-137 225,-109 477,-100 687,24 92,54 212,180 260,275 68,130 86,213 81,368 -5,146 -27,228 -90,334 -48,82 -160,196 -242,247 -116,72 -208,98 -356,101 -69,1 -136,0 -150,-2 z m 215,-146 c 31,-14 55,-56 55,-96 0,-16 -11,-62 -25,-103 -14,-41 -37,-128 -50,-194 -72,-356 -40,-575 85,-575 43,0 75,25 110,87 27,48 40,56 75,43 48,-18 54,-129 11,-195 -40,-61 -186,-94 -256,-58 -50,26 -93,89 -129,188 -44,121 -61,234 -61,399 0,233 43,453 96,495 30,24 52,26 89,9 z m -338,-20 c 52,-58 55,-184 9,-364 -69,-271 -58,-341 91,-564 44,-67 66,-111 70,-139 6,-44 0,-48 -62,-41 -52,5 -117,113 -156,258 -34,125 -82,192 -128,177 -10,-3 -23,-17 -29,-31 -23,-49 -15,-73 47,-137 82,-86 94,-113 66,-141 -24,-24 -69,-2 -116,57 -108,135 -148,293 -129,499 16,171 58,268 115,268 54,0 66,-70 35,-210 -31,-143 -19,-200 42,-200 23,0 32,6 43,33 26,63 28,136 6,260 -23,129 -18,225 14,273 20,30 55,31 82,2 z m 660,-127 c 84,-61 140,-160 169,-301 22,-112 17,-359 -10,-409 -10,-18 -21,-29 -26,-25 -4,5 -10,41 -12,81 -4,80 -19,106 -75,129 -42,18 -115,18 -157,0 -18,-7 -50,-34 -71,-60 -20,-25 -43,-46 -51,-46 -26,0 -26,64 0,191 43,212 145,469 186,469 4,0 25,-13 47,-29 z"
       id="path2" />
    <path
       d="m 1210,1120 c -26,-26 -52,-119 -48,-171 3,-38 7,-44 33,-51 31,-9 137,-4 168,7 24,10 22,87 -3,143 -38,84 -106,116 -150,72 z"
       id="path3" />
  </g>
  <path
     style="fill:#ffffff;fill-opacity:1;stroke-width:0.218092"
     d="m 58.384517,127.66177 c -2.596242,-0.22001 -4.064398,-0.95756 -6.008577,-3.01848 -4.143391,-4.39222 -7.578268,-11.60918 -10.848917,-22.79447 -2.488443,-8.510225 -4.64324,-13.087655 -7.510816,-15.955235 -2.052461,-2.052465 -4.241374,-2.593133 -6.096616,-1.505888 -2.113383,1.238528 -3.888385,5.534063 -3.384563,8.190705 0.434585,2.291565 1.572429,3.933833 6.161507,8.892978 7.354621,7.94772 8.532318,10.14405 6.823745,12.72588 -2.457946,3.71421 -7.709396,1.00209 -13.564073,-7.00519 C 13.980492,93.548557 10.462408,77.577765 12.882585,56.921933 14.665502,41.705017 18.511507,33.197215 23.758523,32.863111 c 3.002798,-0.191205 4.575586,1.633367 5.153875,5.978944 0.425201,3.195196 0.0065,7.143805 -1.62802,15.353732 -1.265975,6.358736 -1.510407,8.478699 -1.400248,12.144401 0.09909,3.297313 0.455035,4.542565 1.66164,5.813112 1.717857,1.808892 5.307469,2.177201 6.97494,0.715657 1.280361,-1.122243 2.485119,-4.25298 3.24125,-8.42286 0.273439,-1.507947 0.372649,-3.199719 0.364495,-6.215614 -0.01187,-4.391329 -0.277974,-7.034138 -1.38345,-13.739777 -1.725797,-10.46842 -1.890146,-17.371779 -0.540387,-22.698537 1.158557,-4.572192 3.08172,-6.852888 5.778597,-6.852888 2.861457,0 5.527795,2.795749 6.966191,7.304297 0.956977,2.99958 1.197145,4.976917 1.17899,9.706855 -0.0251,6.540438 -0.763726,11.401518 -3.346953,22.027262 -2.931998,12.06037 -3.772875,17.198548 -3.783276,23.117722 -0.01747,9.9426 2.48825,16.352273 12.269837,31.386443 5.729463,8.80611 7.373185,12.08157 7.864825,15.6723 0.460991,3.3669 -0.245515,3.88902 -4.746312,3.50761 z"
     id="path4" />
  <path
     style="fill:#ffffff;fill-opacity:1;stroke-width:0.218092"
     d="m 84.074347,124.96809 c -2.996047,-0.60149 -5.35746,-1.98596 -7.833645,-4.59273 -3.708934,-3.90455 -6.902129,-10.12775 -9.785927,-19.07177 -2.336853,-7.247673 -3.650616,-14.137938 -4.449428,-23.33581 -0.369394,-4.253357 -0.367845,-20.32922 0.0024,-25.298635 1.277085,-17.139286 4.217467,-30.266725 7.947748,-35.483006 0.786461,-1.099757 2.830357,-2.578717 4.216419,-3.050996 2.184828,-0.744447 5.535813,0.23319 7.715141,2.250867 2.015603,1.866089 3.483412,5.188274 3.492585,7.904955 0.0045,1.325891 -0.94116,5.423938 -2.119725,9.186111 -1.568865,5.008089 -1.974608,6.412938 -2.991968,10.359355 -4.338285,16.828636 -6.710683,35.149264 -6.030063,46.566671 0.409391,6.867525 1.276301,11.003678 3.096911,14.775788 2.357437,4.88436 6.188865,7.1877 10.676205,6.41821 3.675877,-0.63035 6.076522,-2.73643 9.37149,-8.22164 2.69968,-4.494207 3.5248,-5.248198 5.55874,-5.079522 3.27318,0.271432 5.20429,2.717522 5.79756,7.343652 0.53032,4.13517 -0.7779,9.74355 -2.96851,12.72613 -1.52481,2.07608 -4.78155,4.13016 -8.55024,5.39279 -4.109918,1.37695 -9.734325,1.89446 -13.14573,1.20958 z"
     id="path5" />
  <path
     style="fill:#ffffff;fill-opacity:1;stroke-width:0.218092"
     d="m 125.21555,101.5762 c -0.34316,-1.52537 -0.66484,-4.329527 -0.90692,-7.905812 -0.46697,-6.898531 -2.14976,-9.553426 -7.41638,-11.700608 -4.10798,-1.67481 -11.14952,-1.814205 -15.19446,-0.300795 -2.304182,0.862102 -4.846353,2.927955 -7.995797,6.49764 -1.965736,2.22804 -3.571178,3.755145 -4.4322,4.215952 -0.362536,0.194018 -0.564413,0.157838 -1.02087,-0.182954 -0.947085,-0.7071 -1.167413,-1.9152 -1.044346,-5.726265 0.375248,-11.620595 7.34688,-36.807324 14.110913,-50.979141 2.27928,-4.775493 4.13393,-7.647189 5.43344,-8.412995 0.67581,-0.398263 0.67614,-0.398212 1.92261,0.301475 3.47503,1.950663 7.80587,5.712291 10.41617,9.047145 3.08434,3.940491 5.69548,9.001735 7.59039,14.712661 2.93024,8.83127 3.79531,16.155668 3.56752,30.205699 -0.16354,10.086998 -0.88251,16.247925 -2.21359,18.968568 -0.53891,1.10148 -1.90857,2.73156 -2.29518,2.73156 -0.10457,0 -0.33914,-0.66246 -0.5213,-1.47213 z m -8.87778,-31.774465 c 2.56704,-0.442159 3.02655,-0.666929 3.59216,-1.757126 0.36059,-0.694999 0.46911,-1.377938 0.53376,-3.358965 0.20772,-6.365126 -2.12514,-12.345321 -6.36198,-16.308684 -2.9812,-2.788758 -6.18904,-3.51272 -9.06456,-2.045736 -0.9948,0.507504 -2.45616,2.063214 -3.07196,3.27028 -1.44895,2.840176 -2.886478,7.968502 -3.278893,11.697311 -0.23193,2.203878 -0.02505,5.542131 0.413985,6.679028 0.393983,1.020316 1.548588,1.721107 3.511858,2.131537 1.55741,0.32558 11.31968,0.106771 13.72563,-0.307645 z"
     id="path6" />
</svg>
