<?xml version="1.0" encoding="UTF-8"?> <svg xmlns="http://www.w3.org/2000/svg" width="192" height="192" preserveAspectRatio="xMidYMid meet" version="1.0"><g><title>Layer 1</title><rect stroke="#000" id="svg_11" height="169" width="63" y="9.8" x="65.20001" fill="#ffffff"></rect><g id="svg_1" fill="#000000" transform="translate(0 192) scale(0.1 -0.1)"><path fill="#255270" id="svg_2" d="m805,1904c-400,-76 -698,-363 -782,-754c-27,-128 -23,-296 11,-425c71,-270 259,-502 501,-619c110,-54 164,-71 279,-91c111,-19 176,-19 293,0c411,67 731,387 798,798c19,118 19,181 -1,298c-53,309 -243,566 -519,703c-179,89 -403,124 -580,90zm230,-143c99,-57 44,-171 -83,-171c-87,0 -134,34 -134,96c0,85 125,128 217,75zm130,-266c0,-14 -13,-24 -50,-38c-27,-10 -58,-28 -67,-40c-24,-30 -24,-105 0,-123c16,-13 16,-13 0,-14c-15,0 -18,-9 -18,-49l0,-49l80,-4c72,-3 80,-1 80,15c0,34 -19,54 -70,76c-82,35 -59,79 25,47c64,-25 105,-75 105,-131c0,-38 -5,-47 -37,-74c-20,-16 -64,-44 -97,-62c-94,-49 -94,-47 -24,-88c33,-20 83,-57 110,-83c41,-40 48,-52 48,-85c0,-65 -51,-120 -185,-199c-16,-9 -11,-14 38,-38c67,-34 134,-97 143,-133c10,-40 -22,-92 -83,-133c-29,-19 -52,-37 -53,-40c0,-3 14,-11 30,-17c17,-6 30,-18 30,-25c0,-8 12,-19 28,-24c19,-8 -42,-11 -227,-11c-139,0 -249,2 -243,6c5,3 11,15 13,25c3,12 19,24 47,34l44,14l-49,33c-97,65 -113,129 -49,194c22,22 65,54 97,71c33,17 59,33 59,35c0,2 -24,17 -52,34c-29,16 -64,41 -78,53c-106,97 -93,165 50,263c41,28 75,58 75,65c0,8 -29,30 -65,51c-99,55 -130,88 -130,137c0,50 32,92 93,121c56,27 87,27 87,1c0,-13 -12,-25 -37,-35c-49,-21 -83,-53 -83,-79c0,-19 5,-21 65,-18l65,4l0,109c0,102 -2,112 -24,134c-13,13 -42,29 -64,36c-40,12 -58,31 -46,50c3,5 92,8 212,7c198,-3 207,-4 207,-23z"></path><path fill="#255270" id="svg_3" d="m770,1151c0,-11 43,-42 83,-59c27,-12 27,-11 27,28l0,40l-55,0c-30,0 -55,-4 -55,-9z"></path><path fill="#255270" id="svg_4" d="m1030,1120c0,-35 3,-40 23,-40c23,0 109,49 121,69c5,8 -16,11 -68,11l-76,0l0,-40z"></path><path fill="#255270" id="svg_5" d="m833,891c-53,-39 -73,-68 -73,-109c0,-36 27,-69 77,-95c41,-21 55,-9 51,44l-3,44l-52,3c-29,2 -53,7 -53,12c0,5 24,10 53,12l52,3l3,49c2,27 -1,53 -6,58c-5,5 -26,-4 -49,-21z"></path><path fill="#255270" id="svg_6" d="m1048,913c-15,-4 -18,-15 -18,-59l0,-54l65,0c37,0 65,-4 65,-10c0,-6 -28,-10 -65,-10l-65,0l0,-49c0,-45 2,-49 27,-54c30,-6 105,39 117,68c17,45 6,83 -33,118c-47,43 -70,55 -93,50z"></path><path fill="#255270" id="svg_7" d="m1030,475l0,-45l66,0c48,0 65,3 62,13c-4,12 -105,77 -120,77c-4,0 -8,-20 -8,-45z"></path><path fill="#255270" id="svg_8" d="m832,483c-63,-41 -63,-55 1,-51l52,3l3,38c2,20 -1,37 -5,37c-5,0 -28,-12 -51,-27z"></path><path fill="#255270" id="svg_9" d="m770,391c0,-21 48,-66 81,-76c27,-9 39,8 39,58l0,37l-60,0c-52,0 -60,-2 -60,-19z"></path><path fill="#255270" id="svg_10" d="m1030,365c0,-51 12,-62 57,-50c28,7 93,66 93,84c0,7 -27,11 -75,11l-75,0l0,-45z"></path></g></g></svg> 