<?xml version="1.0" encoding="UTF-8"?>
<svg id="Layer_1" data-name="Layer 1" xmlns="http://www.w3.org/2000/svg" viewBox="0 0 160 160">
  <defs>
    <style>

      .cls-2 {
        fill: #8a2166;
      }

      .cls-2, .cls-3, .cls-4, .cls-5 {
        stroke-width: 0px;
      }

      .cls-3 {
        fill: #0b79bf;
      }

      .cls-4 {
        fill: #14365d;
      }

      .cls-5 {
        fill: #bdcc32;
      }
    </style>
  </defs>
  <g>
    <path class="cls-3" d="m72.45,15.09c0-4.51-3.66-8.16-8.16-8.16-4.51,0-8.16,3.66-8.16,8.16v57.71s16.33,0,16.33,0V15.09Z"/>
    <path class="cls-2" d="m41.22,46.69c0-4.51-3.66-8.16-8.16-8.16-4.51,0-8.16,3.66-8.16,8.16v26.12s16.33,0,16.33,0v-26.12Z"/>
    <path class="cls-5" d="m134.89,57.2c0-4.51-3.66-8.16-8.16-8.16-4.51,0-8.16,3.66-8.16,8.16v15.6s16.33,0,16.33,0v-15.6Z"/>
    <path class="cls-3" d="m72.45,144.48c0,4.51-3.66,8.16-8.16,8.16s-8.16-3.66-8.16-8.16v-57.71s16.33,0,16.33,0v57.71Z"/>
    <path class="cls-4" d="m103.67,123.41c0,4.51-3.66,8.16-8.16,8.16-4.51,0-8.16-3.66-8.16-8.16v-36.64s16.33,0,16.33,0v36.64Z"/>
    <path class="cls-2" d="m41.22,112.89c0,4.51-3.66,8.16-8.16,8.16-4.51,0-8.16-3.66-8.16-8.16v-26.12s16.33,0,16.33,0v26.12Z"/>
    <path class="cls-5" d="m134.89,102.37c0,4.51-3.66,8.16-8.16,8.16-4.51,0-8.16-3.66-8.16-8.16v-15.6s16.33,0,16.33,0v15.6Z"/>
    <path class="cls-4" d="m103.67,36.17c0-4.51-3.66-8.16-8.16-8.16s-8.16,3.66-8.16,8.16v36.64s16.33,0,16.33,0v-36.64Z"/>
  </g>
</svg>
